<svg width="18" height="18" viewBox="0 0 18 18" fill="none" xmlns="http://www.w3.org/2000/svg">
<path d="M8.1 13.5H9.9V8.10004H8.1V13.5ZM9 6.30002C9.255 6.30002 9.46875 6.21378 9.64125 6.04129C9.81375 5.86876 9.9 5.65503 9.9 5.40001C9.9 5.14503 9.81375 4.93126 9.64125 4.75877C9.46875 4.58629 9.255 4.5 9 4.5C8.745 4.5 8.53125 4.58629 8.35875 4.75877C8.18625 4.93126 8.1 5.14503 8.1 5.40001C8.1 5.65503 8.18625 5.86876 8.35875 6.04129C8.53125 6.21378 8.745 6.30002 9 6.30002ZM9 18C7.755 18 6.585 17.7637 5.49 17.2913C4.395 16.8188 3.4425 16.1775 2.6325 15.3675C1.8225 14.5575 1.18125 13.605 0.70875 12.51C0.236246 11.415 0 10.245 0 9C0 7.75502 0.236246 6.58502 0.70875 5.49001C1.18125 4.39503 1.8225 3.44252 2.6325 2.63251C3.4425 1.82254 4.395 1.18126 5.49 0.708755C6.585 0.236252 7.755 0 9 0C10.245 0 11.415 0.236252 12.51 0.708755C13.605 1.18126 14.5575 1.82254 15.3675 2.63251C16.1775 3.44252 16.8187 4.39503 17.2913 5.49001C17.7637 6.58502 18 7.75502 18 9C18 10.245 17.7637 11.415 17.2913 12.51C16.8187 13.605 16.1775 14.5575 15.3675 15.3675C14.5575 16.1775 13.605 16.8188 12.51 17.2913C11.415 17.7637 10.245 18 9 18Z" fill="#2268FD"/>
</svg>
