<svg width="14" height="14" viewBox="0 0 14 14" fill="none" xmlns="http://www.w3.org/2000/svg">
<path d="M7 10.5C7.19833 10.5 7.36458 10.4329 7.49875 10.2988C7.63292 10.1646 7.7 9.99834 7.7 9.80003C7.7 9.60168 7.63292 9.43544 7.49875 9.30125C7.36458 9.1671 7.19833 9.10002 7 9.10002C6.80166 9.10002 6.63542 9.1671 6.50125 9.30125C6.36708 9.43544 6.3 9.60168 6.3 9.80003C6.3 9.99834 6.36708 10.1646 6.50125 10.2988C6.63542 10.4329 6.80166 10.5 7 10.5ZM6.3 7.70001H7.7V3.5H6.3V7.70001ZM7 14C6.03166 14 5.12167 13.8162 4.27 13.4488C3.41833 13.0813 2.6775 12.5825 2.0475 11.9525C1.4175 11.3225 0.918748 10.5817 0.55125 9.73003C0.183747 8.87835 0 7.96835 0 7C0 6.03168 0.183747 5.12168 0.55125 4.27C0.918748 3.41836 1.4175 2.67752 2.0475 2.04751C2.6775 1.41753 3.41833 0.918757 4.27 0.551254C5.12167 0.183751 6.03166 0 7 0C7.96833 0 8.87833 0.183751 9.73 0.551254C10.5817 0.918757 11.3225 1.41753 11.9525 2.04751C12.5825 2.67752 13.0812 3.41836 13.4487 4.27C13.8162 5.12168 14 6.03168 14 7C14 7.96835 13.8162 8.87835 13.4487 9.73003C13.0812 10.5817 12.5825 11.3225 11.9525 11.9525C11.3225 12.5825 10.5817 13.0813 9.73 13.4488C8.87833 13.8162 7.96833 14 7 14Z" fill="#F44336"/>
</svg>
