<svg width="24" height="24" viewBox="0 0 24 24" fill="none" xmlns="http://www.w3.org/2000/svg">
<path d="M22.1333 24L13.7333 15.6C13.0667 16.1334 12.3 16.5555 11.4333 16.8666C10.5667 17.1778 9.64444 17.3333 8.66667 17.3333C6.24445 17.3333 4.19444 16.4944 2.51667 14.8167C0.83889 13.1389 0 11.0889 0 8.66669C0 6.24445 0.83889 4.19446 2.51667 2.51666C4.19444 0.838867 6.24445 0 8.66667 0C11.0889 0 13.1389 0.838867 14.8167 2.51666C16.4944 4.19446 17.3333 6.24445 17.3333 8.66669C17.3333 9.64447 17.1778 10.5667 16.8667 11.4333C16.5556 12.3 16.1333 13.0667 15.6 13.7333L24 22.1334L22.1333 24ZM8.66667 14.6667C10.3333 14.6667 11.75 14.0833 12.9167 12.9167C14.0833 11.75 14.6667 10.3333 14.6667 8.66669C14.6667 7 14.0833 5.58331 12.9167 4.41669C11.75 3.25 10.3333 2.66669 8.66667 2.66669C7 2.66669 5.58334 3.25 4.41666 4.41669C3.25 5.58331 2.66666 7 2.66666 8.66669C2.66666 10.3333 3.25 11.75 4.41666 12.9167C5.58334 14.0833 7 14.6667 8.66667 14.6667Z" fill="#D1E1F7"/>
</svg>
