<svg width="20" height="20" viewBox="0 0 20 20" fill="none" xmlns="http://www.w3.org/2000/svg">
<g clip-path="url(#clip0_1782_26092)">
<path d="M0.833008 19.1654V14.8367L14.2775 1.41768C14.4812 1.23095 14.7061 1.08666 14.9522 0.984809C15.1984 0.882957 15.4572 0.832031 15.7288 0.832031C16.0004 0.832031 16.2636 0.882957 16.5182 0.984809C16.7728 1.08666 16.9935 1.23944 17.1802 1.44314L18.5807 2.86907C18.7844 3.0558 18.9329 3.27648 19.0263 3.53111C19.1197 3.78573 19.1663 4.04036 19.1663 4.29499C19.1663 4.5666 19.1197 4.82547 19.0263 5.07161C18.9329 5.31776 18.7844 5.54268 18.5807 5.74638L5.16171 19.1654H0.833008ZM15.7034 5.72092L17.1293 4.29499L15.7034 2.86907L14.2775 4.29499L15.7034 5.72092Z" fill="#97C2FB"/>
</g>
<defs>
<clipPath id="clip0_1782_26092">
<rect width="20" height="20" fill="white"/>
</clipPath>
</defs>
</svg>
