<svg width="28" height="24" viewBox="0 0 28 24" fill="none" xmlns="http://www.w3.org/2000/svg">
<g id="Icon feather-alert-triangle">
<path id="Path 40630 (Stroke)" fill-rule="evenodd" clip-rule="evenodd" d="M12.1795 0.452127C12.7391 0.154587 13.3644 0 13.9978 0C14.6312 0 15.2565 0.154587 15.8161 0.452127C16.376 0.749784 16.8542 1.18221 17.2025 1.71342L17.2139 1.73109L27.4646 17.9022L27.4754 17.9195C27.8155 18.4743 27.998 19.1109 28 19.7628C28.002 20.4147 27.8234 21.0523 27.4866 21.6092L27.4837 21.6139C27.1461 22.1671 26.6693 22.6208 26.1042 22.9352C25.5394 23.2494 24.9032 23.4152 24.2573 23.4194L24.2484 23.4195L3.74266 23.4195C3.09678 23.4152 2.46062 23.2494 1.89576 22.9352C1.33065 22.6208 0.853898 22.1671 0.516281 21.6139L0.513385 21.6092C0.176622 21.0523 -0.00198701 20.4147 1.66753e-05 19.7628C0.00202047 19.1109 0.184543 18.4743 0.524648 17.9195L0.535278 17.9025L10.7806 1.73136C10.7945 1.70953 10.8089 1.68817 10.8238 1.66731C11.1693 1.15716 11.6359 0.741126 12.1795 0.452127ZM13.9978 2.71757C13.8057 2.71757 13.6189 2.76462 13.4553 2.85162C13.2919 2.93851 13.1591 3.06106 13.0656 3.20371C13.0613 3.21026 13.0569 3.21677 13.0525 3.22324L2.83752 19.3464C2.75809 19.4786 2.71802 19.6249 2.71757 19.7711C2.71712 19.9189 2.75713 20.0669 2.83738 20.2005C2.9262 20.3451 3.05547 20.4705 3.21694 20.5604C3.37855 20.6503 3.56465 20.7 3.75688 20.7019H24.2431C24.4353 20.7 24.6215 20.6503 24.7831 20.5604C24.9445 20.4705 25.0738 20.3451 25.1626 20.2005C25.2429 20.0669 25.2829 19.9188 25.2824 19.7711C25.282 19.625 25.2419 19.4787 25.1626 19.3466L14.9255 3.19679C14.8322 3.05711 14.7011 2.93711 14.5403 2.85162C14.3767 2.76462 14.1899 2.71757 13.9978 2.71757Z" fill="#FF0000"/>
<path id="Path 40631 (Stroke)" fill-rule="evenodd" clip-rule="evenodd" d="M13.8978 7.25C14.6483 7.25 15.2566 7.85835 15.2566 8.60878V13.9899C15.2566 14.7403 14.6483 15.3486 13.8978 15.3486C13.1474 15.3486 12.5391 14.7403 12.5391 13.9899V8.60878C12.5391 7.85835 13.1474 7.25 13.8978 7.25Z" fill="#FF0000"/>
<path id="Path 40632" d="M13.8984 17.8487V17.6797" stroke="#FF0000" stroke-width="3" stroke-linecap="round" stroke-linejoin="round"/>
</g>
</svg>
