<?xml version="1.0" encoding="UTF-8"?>
<svg id="Layer_1" xmlns="http://www.w3.org/2000/svg" viewBox="0 0 24 24">
  <defs>
    <style>
      .cls-1 {
        fill: #6c6c6c;
      }
    </style>
  </defs>
  <path class="cls-1" d="M12,24c-3.35,0-6.19-1.16-8.51-3.49C1.16,18.19,0,15.35,0,12S1.16,5.81,3.49,3.49C5.81,1.16,8.65,0,12,0c1.73,0,3.38.36,4.95,1.07,1.57.71,2.92,1.73,4.05,3.06V0h3v10.5h-10.5v-3h6.3c-.8-1.4-1.89-2.5-3.28-3.3-1.39-.8-2.89-1.2-4.52-1.2-2.5,0-4.62.88-6.37,2.63s-2.62,3.88-2.62,6.37.87,4.62,2.62,6.38,3.88,2.62,6.37,2.62c1.93,0,3.66-.55,5.21-1.65,1.55-1.1,2.64-2.55,3.26-4.35h3.15c-.7,2.65-2.12,4.81-4.27,6.49-2.15,1.68-4.6,2.51-7.35,2.51Z"/>
</svg>