<svg width="49" height="48" viewBox="0 0 49 48" fill="none" xmlns="http://www.w3.org/2000/svg">
<path d="M21.14 35.04L38.06 18.12L34.7 14.76L21.14 28.3201L14.3 21.4801L10.94 24.8401L21.14 35.04ZM24.5 48C21.18 48 18.06 47.37 15.14 46.1101C12.22 44.8501 9.67999 43.14 7.51999 40.9801C5.36 38.8201 3.64999 36.28 2.39 33.3601C1.12999 30.4401 0.5 27.3201 0.5 24C0.5 20.6801 1.12999 17.5601 2.39 14.64C3.64999 11.7201 5.36 9.18005 7.51999 7.02002C9.67999 4.86011 12.22 3.15002 15.14 1.89001C18.06 0.630005 21.18 0 24.5 0C27.82 0 30.94 0.630005 33.86 1.89001C36.78 3.15002 39.32 4.86011 41.48 7.02002C43.64 9.18005 45.35 11.7201 46.61 14.64C47.87 17.5601 48.5 20.6801 48.5 24C48.5 27.3201 47.87 30.4401 46.61 33.3601C45.35 36.28 43.64 38.8201 41.48 40.9801C39.32 43.14 36.78 44.8501 33.86 46.1101C30.94 47.37 27.82 48 24.5 48Z" fill="#00CC00"/>
</svg>
