<svg width="24" height="24" viewBox="0 0 24 24" fill="none" xmlns="http://www.w3.org/2000/svg">
<path d="M10.32 17.52L18.78 9.06L17.1 7.38L10.32 14.16L6.9 10.7401L5.22 12.42L10.32 17.52ZM12 24C10.34 24 8.78 23.685 7.32 23.0551C5.86 22.425 4.59 21.57 3.50999 20.4901C2.43 19.41 1.575 18.14 0.945 16.6801C0.314995 15.22 0 13.66 0 12C0 10.34 0.314995 8.78003 0.945 7.32001C1.575 5.86005 2.43 4.59003 3.50999 3.51001C4.59 2.43005 5.86 1.57501 7.32 0.945007C8.78 0.315002 10.34 0 12 0C13.66 0 15.22 0.315002 16.68 0.945007C18.14 1.57501 19.41 2.43005 20.49 3.51001C21.57 4.59003 22.425 5.86005 23.055 7.32001C23.685 8.78003 24 10.34 24 12C24 13.66 23.685 15.22 23.055 16.6801C22.425 18.14 21.57 19.41 20.49 20.4901C19.41 21.57 18.14 22.425 16.68 23.0551C15.22 23.685 13.66 24 12 24Z" fill="#009900"/>
</svg>
