<svg width="36" height="36" viewBox="0 0 36 36" fill="none" xmlns="http://www.w3.org/2000/svg">
<path d="M18 27C18.51 27 18.9375 26.8275 19.2825 26.4825C19.6275 26.1376 19.8 25.71 19.8 25.2001C19.8 24.69 19.6275 24.2626 19.2825 23.9175C18.9375 23.5725 18.51 23.4001 18 23.4001C17.49 23.4001 17.0625 23.5725 16.7175 23.9175C16.3725 24.2626 16.2 24.69 16.2 25.2001C16.2 25.71 16.3725 26.1376 16.7175 26.4825C17.0625 26.8275 17.49 27 18 27ZM16.2 19.8H19.8V9H16.2V19.8ZM18 36C15.51 36 13.17 35.5275 10.98 34.5826C8.79 33.6376 6.88499 32.355 5.26499 30.7351C3.645 29.1151 2.3625 27.21 1.4175 25.0201C0.472492 22.83 0 20.4901 0 18C0 15.51 0.472492 13.17 1.4175 10.98C2.3625 8.79007 3.645 6.88504 5.26499 5.26501C6.88499 3.64508 8.79 2.36252 10.98 1.41751C13.17 0.472504 15.51 0 18 0C20.49 0 22.83 0.472504 25.02 1.41751C27.21 2.36252 29.115 3.64508 30.735 5.26501C32.355 6.88504 33.6375 8.79007 34.5825 10.98C35.5275 13.17 36 15.51 36 18C36 20.4901 35.5275 22.83 34.5825 25.0201C33.6375 27.21 32.355 29.1151 30.735 30.7351C29.115 32.355 27.21 33.6376 25.02 34.5826C22.83 35.5275 20.49 36 18 36Z" fill="#F7AD05"/>
</svg>
